mtllib BCityHall.mtl
o CityHall
v 5.600000 0.000000 0.600000
v 5.600000 0.000000 5.400000
v 0.400000 0.000000 5.400000
v 0.400001 0.000000 0.599999
v 5.600001 0.400000 0.600001
v 5.599998 0.400000 5.400002
v 0.399999 0.400000 5.399999
v 0.400000 0.400000 0.600000
v 5.599998 0.400000 3.500001
v 5.600001 0.400000 2.500001
v 5.599998 -0.000000 3.500001
v 5.600001 -0.000000 2.500001
v 4.899999 0.400000 3.500001
v 4.900002 0.400000 2.500001
v 4.600000 0.400000 5.200000
v 0.600000 0.400000 5.200000
v 4.600000 0.400000 0.800000
v 0.600000 0.400000 0.800000
v 4.600000 0.400000 5.200000
v 0.600000 0.400000 5.200000
v 4.600000 0.400000 0.800000
v 0.600000 0.400000 0.800000
v 4.600000 2.700000 5.200000
v 0.600000 2.700000 5.200000
v 4.600000 2.700000 0.800000
v 0.600000 2.700000 0.800000
v 4.600000 2.700000 5.200000
v 0.600000 2.700000 5.200000
v 4.600000 2.700000 0.800000
v 0.600000 2.700000 0.800000
v 4.000000 3.100000 4.540000
v 0.600000 3.100000 4.540000
v 4.000000 3.100000 1.460000
v 0.600000 3.100000 1.460000
v 4.000000 4.600000 4.540000
v 0.600000 4.600000 4.540000
v 4.000000 4.600000 1.460000
v 0.600000 4.600000 1.460000
v 3.500000 5.100000 3.000000
v 0.600000 5.100000 3.000000
v 3.491685 5.941667 3.003205
v 4.065262 5.941667 2.184053
v 4.065262 5.541667 2.184053
v 3.491685 5.541667 3.003205
v 3.950547 5.741667 2.347884
v 3.526504 6.000000 2.997066
v 3.485546 6.000000 2.968387
v 3.456867 6.000000 3.009345
v 3.497825 6.000000 3.038023
v 3.526504 5.067216 2.997066
v 3.485546 5.067216 2.968387
v 3.456867 5.067216 3.009345
v 3.497825 5.067216 3.038023
v 3.497024 5.941667 3.006944
v 4.070601 5.941667 2.187792
v 4.070601 5.541667 2.187792
v 3.497024 5.541667 3.006944
v 3.955885 5.741667 2.351622
vn 0.000000 -1.000000 0.000000
vn -0.819152 0.000000 -0.573576
vn 0.819152 0.000000 0.573577
vn -0.573583 0.000000 0.819147
vn 0.000000 1.000000 -0.000073
vn 0.405598 -0.707146 -0.579167
vn 0.405602 0.707087 -0.579237
vn -0.819150 0.000000 -0.573579
vn -0.819153 0.000000 -0.573575
vn 0.819152 0.000000 0.573576
vn 0.819153 0.000000 0.573575
vn -0.573582 0.000000 0.819148
vn 0.000000 1.000000 0.000059
vn 0.405602 -0.707087 -0.579237
vn 0.000000 -1.000000 -0.000033
vn 0.405590 0.707108 -0.579219
vn 0.804071 0.577319 -0.141758
vn -0.141758 0.577349 -0.804071
vn 0.141758 0.577349 0.804071
vn 0.141758 -0.577349 0.804071
vn -0.804071 -0.577349 0.141758
vn -0.141758 -0.577349 -0.804071
vn 0.804071 -0.577349 -0.141758
vn -0.804071 0.577349 0.141758
vn 0.554700 0.832050 0.000000
vn 0.000000 0.855198 -0.518302
vn 0.000000 0.855198 0.518302
vn 0.707107 0.707107 0.000000
vn 0.000000 0.951125 0.308807
vn 0.000000 0.951125 -0.308807
vn 0.000000 0.855198 -0.518301
vn 0.000000 0.855198 0.518301
vn 1.000000 0.000000 0.000000
vn -1.000000 0.000000 0.000000
vn 0.000000 0.000000 -1.000000
vn 0.000000 0.000000 1.000000
vn -0.000000 -0.000004 1.000000
vn -1.000000 -0.000002 -0.000000
vn 0.000000 0.000004 -1.000000
vn 1.000000 0.000005 -0.000001
vn 0.000000 1.000000 0.000000
vn 0.496139 0.868243 0.000001
vn 0.000000 0.000001 1.000000
vn 0.000000 0.000002 -1.000000
vn 1.000000 0.000000 -0.000001
usemtl flag
s off
f 16//1 18//1 15//1
f 43//2 44//2 41//2
f 57//3 55//3 54//3
f 44//4 57//4 41//4
f 41//5 54//5 42//5
f 42//6 55//6 58//6
f 43//1 56//1 44//1
f 45//7 58//7 43//7
f 18//1 17//1 15//1
f 45//8 43//8 41//8
f 42//9 45//9 41//9
f 56//10 58//10 57//10
f 58//11 55//11 57//11
f 57//12 54//12 41//12
f 54//13 55//13 42//13
f 45//14 42//14 58//14
f 56//15 57//15 44//15
f 58//16 56//16 43//16
usemtl logs
s 1
f 46//17 47//18 49//19
f 53//20 52//21 51//22
f 46//17 49//19 50//23
f 47//18 46//17 51//22
f 48//24 47//18 52//21
f 49//19 48//24 53//20
f 47//18 48//24 49//19
f 50//23 53//20 51//22
f 49//19 53//20 50//23
f 46//17 50//23 51//22
f 47//18 51//22 52//21
f 48//24 52//21 53//20
usemtl roof
s off
f 29//25 33//25 27//25
f 30//26 34//26 29//26
f 28//27 27//27 32//27
f 39//28 35//28 37//28
f 36//29 35//29 40//29
f 38//30 40//30 37//30
f 33//25 31//25 27//25
f 34//31 33//31 29//31
f 27//32 31//32 32//32
f 35//29 39//29 40//29
f 40//30 39//30 37//30
usemtl walls
f 19//33 21//33 23//33
f 22//34 20//34 26//34
f 21//35 22//35 25//35
f 20//36 19//36 24//36
f 28//34 32//34 30//34
f 33//33 37//33 31//33
f 32//34 36//34 34//34
f 34//35 38//35 33//35
f 32//36 31//36 36//36
f 36//34 40//34 38//34
f 21//33 25//33 23//33
f 20//34 24//34 26//34
f 22//35 26//35 25//35
f 19//36 23//36 24//36
f 32//34 34//34 30//34
f 37//33 35//33 31//33
f 36//34 38//34 34//34
f 38//35 37//35 33//35
f 31//36 35//36 36//36
usemtl cobblestone
f 2//37 6//37 7//37
f 3//38 7//38 4//38
f 5//39 1//39 8//39
f 11//35 13//35 9//35
f 2//40 11//40 6//40
f 12//36 10//36 14//36
f 1//33 5//33 10//33
f 8//41 7//41 6//41
f 13//42 11//42 12//42
f 3//43 2//43 7//43
f 7//38 8//38 4//38
f 1//44 4//44 8//44
f 11//33 9//33 6//33
f 12//45 1//45 10//45
f 10//41 5//41 14//41
f 5//41 8//41 14//41
f 6//41 9//41 13//41
f 8//41 6//41 13//41
f 14//41 8//41 13//41
f 14//42 13//42 12//42
