mtllib BQuarry.mtl
o Quarry
v 2.002343 2.892029 3.004647
v 2.002344 2.698654 2.320793
v 1.318489 2.698654 3.004647
v 2.002343 2.698654 3.688501
v 2.686198 2.698654 3.004647
v 2.638802 2.516654 2.368189
v 1.365885 2.516654 2.368189
v 1.365885 2.516654 3.641106
v 2.638802 2.516654 3.641106
v 3.715364 0.014153 3.004647
v 3.600261 0.014153 2.320793
v 3.600260 1.163029 3.004647
v 3.600260 0.014154 3.688502
v 3.491927 1.083404 2.368189
v 3.491927 1.083404 3.641106
v 2.002343 0.014153 4.717668
v 2.686198 0.014153 4.602564
v 2.002343 1.163029 4.602564
v 1.318489 0.014154 4.602564
v 2.638802 1.083404 4.494231
v 1.365885 1.083404 4.494230
v 0.289323 0.014153 3.004646
v 0.404427 0.014153 3.688501
v 0.404427 1.163029 3.004647
v 0.404427 0.014154 2.320792
v 0.512760 1.083404 3.641105
v 0.512760 1.083404 2.368188
v 2.686198 0.014154 1.406730
v 1.318490 0.014153 1.406730
v 2.638802 1.083404 1.515064
v 1.365886 1.083404 1.515064
v 3.256641 0.014153 1.750350
v 3.170313 1.003779 1.836679
v 3.256640 0.014153 4.258944
v 3.170312 1.003779 4.172616
v 0.748047 0.014153 4.258944
v 0.834374 1.003779 4.172616
v 0.748047 0.014153 1.750350
v 0.834375 1.003779 1.836678
v 3.170313 1.976341 2.415585
v 3.256641 2.121372 3.004647
v 3.170312 1.976341 3.593710
v 2.591407 1.976341 1.836679
v 2.002344 2.121372 1.750350
v 1.413281 1.976341 1.836678
v 2.591406 1.976341 4.172616
v 2.002343 2.121372 4.258944
v 1.413281 1.976341 4.172616
v 0.834375 1.976341 3.593709
v 0.748047 2.121372 3.004647
v 0.834375 1.976341 2.415585
v 1.389584 1.529872 1.675871
v 2.995400 1.682487 2.011592
v 2.995399 1.682487 3.997703
v 1.009288 1.682487 3.997703
v 1.009288 1.682487 2.011591
v 2.615104 1.529872 1.675871
v 1.389584 1.529872 0.675871
v 1.318490 0.014153 0.675870
v 2.615104 1.529872 0.675870
v 2.686198 0.014154 0.675870
v 2.002344 1.642201 1.578540
v 2.002344 1.642201 0.675870
v 2.686198 0.014154 3.406730
v 1.318490 0.014153 3.406730
v 1.389584 1.529872 3.675871
v 2.615104 1.529872 3.675871
vn 0.000000 0.999969 0.000000
vn 0.502182 0.864742 0.000000
vn 0.468673 0.748741 -0.468673
vn 0.000000 0.864742 -0.502182
vn 0.416425 0.485214 -0.768822
vn 0.835536 0.549394 0.000000
vn 0.768151 0.488235 -0.414136
vn 0.642415 0.386578 -0.661672
vn -0.468673 0.748741 -0.468673
vn -0.502182 0.864742 0.000000
vn -0.768151 0.488235 -0.414136
vn 0.000000 0.548479 -0.836146
vn -0.416425 0.485214 -0.768822
vn -0.642415 0.386578 -0.661672
vn -0.468673 0.748741 0.468673
vn 0.000000 0.864742 0.502182
vn -0.414136 0.488235 0.768151
vn -0.835536 0.549394 0.000000
vn -0.768151 0.488235 0.414136
vn -0.650014 0.393597 0.650014
vn 0.468673 0.748741 0.468673
vn 0.768151 0.488235 0.414136
vn 0.000000 0.549394 0.835536
vn 0.414136 0.488235 0.768151
vn 0.650014 0.393597 0.650014
vn 0.995019 0.099690 0.000000
vn 0.931374 0.106909 -0.348014
vn 0.973418 0.228980 0.000000
vn 0.906308 0.219275 -0.361217
vn 0.702360 0.115676 -0.702360
vn 0.688192 0.217627 -0.692068
vn 0.931374 0.106908 0.348014
vn 0.906308 0.219275 0.361217
vn 0.702360 0.115676 0.702360
vn 0.690756 0.213721 0.690756
vn -0.000000 0.099689 0.995019
vn 0.348014 0.106909 0.931374
vn 0.000000 0.228980 0.973418
vn 0.361217 0.219275 0.906308
vn -0.348014 0.106908 0.931374
vn -0.361217 0.219275 0.906308
vn -0.702360 0.115676 0.702360
vn -0.690756 0.213721 0.690756
vn -0.995019 0.099689 -0.000000
vn -0.931374 0.106908 0.348014
vn -0.973418 0.228980 0.000000
vn -0.906308 0.219275 0.361217
vn -0.931374 0.106908 -0.348014
vn -0.906308 0.219275 -0.361217
vn -0.702360 0.115676 -0.702360
vn -0.688192 0.217627 -0.692068
vn 0.512916 0.109006 -0.851490
vn 0.532656 0.225450 -0.815751
vn 0.457873 0.321125 -0.828994
vn -0.512915 0.109006 -0.851490
vn -0.532656 0.225450 -0.815751
vn -0.457873 0.321125 -0.828994
vn 0.000000 0.337516 -0.941320
vn -0.998902 -0.046853 0.000000
vn -0.998902 0.046853 0.000000
vn -0.998902 -0.046852 0.000000
vn -0.180311 0.983610 0.000000
vn -0.180311 -0.983610 0.000000
vn -0.180310 -0.983610 0.000000
vn 0.000000 0.174832 -0.984598
vn 0.000000 -1.000000 0.000000
vn 0.000001 0.174832 -0.984598
vn 0.180311 -0.983610 0.000000
vn -0.163939 -0.981342 -0.100455
usemtl rock
s 1
f 1//1 5//2 6//3
f 2//4 6//3 43//5
f 5//2 41//6 40//7
f 6//3 40//7 53//8
f 1//1 2//4 7//9
f 3//10 7//9 51//11
f 2//4 44//12 45//13
f 7//9 45//13 56//14
f 1//1 3//10 8//15
f 4//16 8//15 48//17
f 3//10 50//18 49//19
f 8//15 49//19 55//20
f 1//1 4//16 9//21
f 5//2 9//21 42//22
f 4//16 47//23 46//24
f 9//21 46//24 54//25
f 10//26 11//27 12//28
f 12//28 14//29 41//6
f 11//27 32//30 14//29
f 14//29 33//31 40//7
f 10//26 12//28 13//32
f 13//32 15//33 34//34
f 12//28 41//6 15//33
f 15//33 42//22 35//35
f 16//36 17//37 18//38
f 18//38 20//39 47//23
f 17//37 34//34 20//39
f 20//39 35//35 46//24
f 16//36 18//38 19//40
f 19//40 21//41 36//42
f 18//38 47//23 21//41
f 21//41 48//17 37//43
f 22//44 23//45 24//46
f 24//46 26//47 50//18
f 23//45 36//42 26//47
f 26//47 37//43 49//19
f 22//44 24//46 25//48
f 25//48 27//49 38//50
f 24//46 50//18 27//49
f 27//49 51//11 39//51
f 28//52 30//53 32//30
f 57//54 43//5 53//8
f 43//5 57//54 44//12
f 29//55 38//50 31//56
f 52//57 56//14 45//13
f 44//12 62//58 52//57
f 2//4 1//1 6//3
f 44//12 2//4 43//5
f 6//3 5//2 40//7
f 43//5 6//3 53//8
f 3//10 1//1 7//9
f 50//18 3//10 51//11
f 7//9 2//4 45//13
f 51//11 7//9 56//14
f 4//16 1//1 8//15
f 47//23 4//16 48//17
f 8//15 3//10 49//19
f 48//17 8//15 55//20
f 5//2 1//1 9//21
f 41//6 5//2 42//22
f 9//21 4//16 46//24
f 42//22 9//21 54//25
f 11//27 14//29 12//28
f 14//29 40//7 41//6
f 32//30 33//31 14//29
f 33//31 53//8 40//7
f 12//28 15//33 13//32
f 15//33 35//35 34//34
f 41//6 42//22 15//33
f 42//22 54//25 35//35
f 17//37 20//39 18//38
f 20//39 46//24 47//23
f 34//34 35//35 20//39
f 35//35 54//25 46//24
f 18//38 21//41 19//40
f 21//41 37//43 36//42
f 47//23 48//17 21//41
f 48//17 55//20 37//43
f 23//45 26//47 24//46
f 26//47 49//19 50//18
f 36//42 37//43 26//47
f 37//43 55//20 49//19
f 24//46 27//49 25//48
f 27//49 39//51 38//50
f 50//18 51//11 27//49
f 51//11 56//14 39//51
f 30//53 33//31 32//30
f 30//53 57//54 53//8
f 33//31 30//53 53//8
f 57//54 62//58 44//12
f 38//50 39//51 31//56
f 31//56 39//51 56//14
f 52//57 31//56 56//14
f 45//13 44//12 52//57
usemtl wood
s off
f 60//59 61//59 57//59
f 58//60 59//60 52//60
f 61//61 28//61 57//61
f 59//60 29//60 52//60
usemtl roof
f 58//62 52//62 63//62
f 60//63 57//63 63//63
f 52//62 62//62 63//62
f 57//64 62//64 63//64
usemtl darkrock
f 64//65 65//65 67//65
f 52//60 29//60 66//60
f 57//59 28//59 67//59
f 67//66 66//66 57//66
f 65//66 29//66 64//66
f 65//67 66//67 67//67
f 29//60 65//60 66//60
f 28//59 64//59 67//59
f 66//68 52//68 62//68
f 57//69 66//69 62//69
f 29//66 28//66 64//66
