# Blender v2.69 (sub 0) OBJ File: ''
# www.blender.org
mtllib house.mtl
o roof_Plane
v 3.650000 1.900000 -0.400000
v 0.350000 1.900000 -0.400000
v 3.650000 1.900000 -2.600000
v 0.350000 1.900000 -2.600000
v 0.350000 3.000000 -1.500000
v 3.650000 3.000000 -1.500000
vn 0.000000 0.707107 0.707107
vn 0.000000 0.707107 -0.707107
usemtl None
s off
f 2//1 1//1 5//1
f 1//1 6//1 5//1
f 6//2 3//2 5//2
f 3//2 4//2 5//2
o walls_Cube
v 3.500000 0.000000 -2.500000
v 3.500000 0.000000 -0.500000
v 0.500000 0.000000 -0.500000
v 0.500000 0.000000 -2.500000
v 3.500001 2.000000 -2.500000
v 3.500000 2.000000 -0.499999
v 0.500000 2.000000 -0.500000
v 0.500000 2.000000 -2.500000
v 3.500000 3.000000 -1.500000
v 0.500000 3.000000 -1.500000
vn 0.000000 -1.000000 0.000000
vn 1.000000 -0.000000 0.000000
vn -0.000000 -0.000000 1.000000
vn -1.000000 -0.000000 -0.000000
vn 0.000000 0.000000 -1.000000
vn 1.000000 0.000000 0.000001
usemtl Material
s off
f 7//3 8//3 10//3
f 7//4 11//4 8//4
f 8//5 12//5 9//5
f 9//6 13//6 10//6
f 11//7 7//7 14//7
f 8//3 9//3 10//3
f 11//4 15//4 8//4
f 15//8 12//8 8//8
f 12//5 13//5 9//5
f 13//6 16//6 10//6
f 16//6 14//6 10//6
f 7//7 10//7 14//7
